<svg width="288" height="90" viewBox="0 0 288 90" fill="none" xmlns="http://www.w3.org/2000/svg">
<rect x="0.5" y="0.5" width="287" height="89" stroke="#DCEA88"/>
<line y1="27.5" x2="288" y2="27.5" stroke="#DCEA88"/>
<line x1="28.5" y1="28" x2="28.5" y2="90" stroke="#DCEA88"/>
<line x1="258.5" y1="-2.18557e-08" x2="258.5" y2="28" stroke="#DCEA88"/>
<path d="M18.398 8.666V9.888H12.483V13.437L17.826 13.424V14.646H12.483V19.079H11.118V8.666H18.398ZM26.7034 19.079L24.3374 15.374C24.0774 15.3913 23.8824 15.4 23.7524 15.4H21.2174V19.079H19.8524V8.666H23.7524C24.619 8.666 25.3644 8.80467 25.9884 9.082C26.621 9.35067 27.102 9.74067 27.4314 10.252C27.7607 10.7547 27.9254 11.3483 27.9254 12.033C27.9254 12.7697 27.7347 13.4023 27.3534 13.931C26.972 14.4597 26.4217 14.8497 25.7024 15.101L28.3154 19.079H26.7034ZM23.6484 14.178C24.567 14.178 25.282 13.996 25.7934 13.632C26.3047 13.2593 26.5604 12.7263 26.5604 12.033C26.5604 11.3397 26.3047 10.811 25.7934 10.447C25.282 10.0743 24.567 9.888 23.6484 9.888H21.2174V14.178H23.6484ZM34.6972 19.313C33.6572 19.313 32.7168 19.079 31.8762 18.611C31.0442 18.143 30.3898 17.493 29.9132 16.661C29.4365 15.829 29.1982 14.8973 29.1982 13.866C29.1982 12.8347 29.4322 11.903 29.9002 11.071C30.3768 10.239 31.0312 9.589 31.8632 9.121C32.7038 8.653 33.6442 8.419 34.6842 8.419C35.7242 8.419 36.6602 8.653 37.4922 9.121C38.3328 9.589 38.9915 10.239 39.4682 11.071C39.9448 11.903 40.1832 12.8347 40.1832 13.866C40.1832 14.8973 39.9448 15.829 39.4682 16.661C39.0002 17.493 38.3458 18.143 37.5052 18.611C36.6732 19.079 35.7372 19.313 34.6972 19.313ZM34.6972 18.065C35.4772 18.065 36.1792 17.8873 36.8032 17.532C37.4358 17.168 37.9298 16.6697 38.2852 16.037C38.6405 15.3957 38.8182 14.672 38.8182 13.866C38.8182 13.06 38.6405 12.3407 38.2852 11.708C37.9298 11.0667 37.4358 10.5683 36.8032 10.213C36.1792 9.849 35.4728 9.667 34.6842 9.667C33.8955 9.667 33.1892 9.849 32.5652 10.213C31.9412 10.5683 31.4515 11.0667 31.0962 11.708C30.7408 12.3407 30.5632 13.06 30.5632 13.866C30.5632 14.672 30.7408 15.3957 31.0962 16.037C31.4515 16.6697 31.9455 17.168 32.5782 17.532C33.2108 17.8873 33.9172 18.065 34.6972 18.065ZM43.2543 8.666L49.5593 16.778V8.601H50.9373V19.014H49.6503L43.3453 10.902V19.079H41.9803V8.666H43.2543ZM57.6499 9.888V19.079H56.2849V9.888H52.5409V8.666H61.3809V9.888H57.6499ZM66.11 14.672H61.56V13.502H66.11V14.672ZM75.3519 8.666V9.875H69.3199V13.151H74.8969V14.36H69.3199V17.87H75.4689V19.079H67.9549V8.666H75.3519ZM78.4965 8.666L84.8015 16.778V8.601H86.1795V19.014H84.8925L78.5875 10.902V19.079H77.2225V8.666H78.4965ZM92.0991 8.666C93.2777 8.666 94.2917 8.88267 95.1411 9.316C95.9904 9.74933 96.6404 10.3603 97.0911 11.149C97.5417 11.929 97.7671 12.839 97.7671 13.879C97.7671 14.919 97.5417 15.829 97.0911 16.609C96.6491 17.389 95.9991 17.9957 95.1411 18.429C94.2917 18.8623 93.2777 19.079 92.0991 19.079H88.4071V8.666H92.0991ZM92.1381 17.844C93.4641 17.844 94.5041 17.4973 95.2581 16.804C96.0121 16.1107 96.3891 15.1357 96.3891 13.879C96.3891 12.6223 96.0121 11.643 95.2581 10.941C94.5041 10.239 93.4641 9.888 92.1381 9.888H89.7721V17.844H92.1381ZM106.902 8.666C108.08 8.666 109.094 8.88267 109.944 9.316C110.793 9.74933 111.443 10.3603 111.894 11.149C112.344 11.929 112.57 12.839 112.57 13.879C112.57 14.919 112.344 15.829 111.894 16.609C111.452 17.389 110.802 17.9957 109.944 18.429C109.094 18.8623 108.08 19.079 106.902 19.079H103.21V8.666H106.902ZM106.941 17.844C108.267 17.844 109.307 17.4973 110.061 16.804C110.815 16.1107 111.192 15.1357 111.192 13.879C111.192 12.6223 110.815 11.643 110.061 10.941C109.307 10.239 108.267 9.888 106.941 9.888H104.575V17.844H106.941ZM121.766 8.666V9.875H115.734V13.151H121.311V14.36H115.734V17.87H121.883V19.079H114.369V8.666H121.766ZM133.114 8.666L128.707 19.079H127.225L122.818 8.666H124.313L127.992 17.467L131.671 8.666H133.114ZM141.913 8.666V9.875H135.881V13.151H141.458V14.36H135.881V17.87H142.03V19.079H134.516V8.666H141.913ZM145.149 17.844H150.869V19.079H143.784V8.666H145.149V17.844ZM156.966 19.313C155.926 19.313 154.985 19.079 154.145 18.611C153.313 18.143 152.658 17.493 152.182 16.661C151.705 15.829 151.467 14.8973 151.467 13.866C151.467 12.8347 151.701 11.903 152.169 11.071C152.645 10.239 153.3 9.589 154.132 9.121C154.972 8.653 155.913 8.419 156.953 8.419C157.993 8.419 158.929 8.653 159.761 9.121C160.601 9.589 161.26 10.239 161.737 11.071C162.213 11.903 162.452 12.8347 162.452 13.866C162.452 14.8973 162.213 15.829 161.737 16.661C161.269 17.493 160.614 18.143 159.774 18.611C158.942 19.079 158.006 19.313 156.966 19.313ZM156.966 18.065C157.746 18.065 158.448 17.8873 159.072 17.532C159.704 17.168 160.198 16.6697 160.554 16.037C160.909 15.3957 161.087 14.672 161.087 13.866C161.087 13.06 160.909 12.3407 160.554 11.708C160.198 11.0667 159.704 10.5683 159.072 10.213C158.448 9.849 157.741 9.667 156.953 9.667C156.164 9.667 155.458 9.849 154.834 10.213C154.21 10.5683 153.72 11.0667 153.365 11.708C153.009 12.3407 152.832 13.06 152.832 13.866C152.832 14.672 153.009 15.3957 153.365 16.037C153.72 16.6697 154.214 17.168 154.847 17.532C155.479 17.8873 156.186 18.065 156.966 18.065ZM167.941 8.666C168.825 8.666 169.588 8.81767 170.229 9.121C170.879 9.41567 171.373 9.836 171.711 10.382C172.058 10.928 172.231 11.5607 172.231 12.28C172.231 12.9993 172.058 13.632 171.711 14.178C171.373 14.724 170.879 15.1487 170.229 15.452C169.588 15.7467 168.825 15.894 167.941 15.894H165.614V19.079H164.249V8.666H167.941ZM167.837 14.659C168.79 14.659 169.531 14.4553 170.06 14.048C170.597 13.632 170.866 13.0427 170.866 12.28C170.866 11.5173 170.597 10.9323 170.06 10.525C169.531 10.109 168.79 9.901 167.837 9.901H165.614V14.659H167.837ZM181.142 8.666V9.875H175.11V13.151H180.687V14.36H175.11V17.87H181.259V19.079H173.745V8.666H181.142ZM189.864 19.079L187.498 15.374C187.238 15.3913 187.043 15.4 186.913 15.4H184.378V19.079H183.013V8.666H186.913C187.779 8.666 188.525 8.80467 189.149 9.082C189.781 9.35067 190.262 9.74067 190.592 10.252C190.921 10.7547 191.086 11.3483 191.086 12.033C191.086 12.7697 190.895 13.4023 190.514 13.931C190.132 14.4597 189.582 14.8497 188.863 15.101L191.476 19.079H189.864ZM186.809 14.178C187.727 14.178 188.442 13.996 188.954 13.632C189.465 13.2593 189.721 12.7263 189.721 12.033C189.721 11.3397 189.465 10.811 188.954 10.447C188.442 10.0743 187.727 9.888 186.809 9.888H184.378V14.178H186.809Z" fill="#DCEA88"/>
<path d="M47.515 38.666V39.875H41.483V43.151H47.06V44.36H41.483V47.87H47.632V49.079H40.118V38.666H47.515ZM58.8626 38.666L54.4556 49.079H52.9736L48.5666 38.666H50.0616L53.7406 47.467L57.4196 38.666H58.8626ZM67.6625 38.666V39.875H61.6305V43.151H67.2075V44.36H61.6305V47.87H67.7795V49.079H60.2655V38.666H67.6625ZM76.384 49.079L74.018 45.374C73.758 45.3913 73.563 45.4 73.433 45.4H70.898V49.079H69.533V38.666H73.433C74.2997 38.666 75.045 38.8047 75.669 39.082C76.3017 39.3507 76.7827 39.7407 77.112 40.252C77.4414 40.7547 77.606 41.3483 77.606 42.033C77.606 42.7697 77.4154 43.4023 77.034 43.931C76.6527 44.4597 76.1024 44.8497 75.383 45.101L77.996 49.079H76.384ZM73.329 44.178C74.2477 44.178 74.9627 43.996 75.474 43.632C75.9854 43.2593 76.241 42.7263 76.241 42.033C76.241 41.3397 75.9854 40.811 75.474 40.447C74.9627 40.0743 74.2477 39.888 73.329 39.888H70.898V44.178H73.329ZM83.633 45.595V49.079H82.255V45.595L78.173 38.666H79.72L82.996 44.321L86.376 38.666H87.845L83.633 45.595ZM94.3082 47.844H100.028V49.079H92.9432V38.666H94.3082V47.844ZM102.928 49.079H101.563V38.666H102.928V49.079ZM106.443 38.666L112.748 46.778V38.601H114.126V49.014H112.839L106.534 40.902V49.079H105.169V38.666H106.443ZM123.75 38.666V39.875H117.718V43.151H123.295V44.36H117.718V47.87H123.867V49.079H116.353V38.666H123.75ZM134.308 49.313C133.268 49.313 132.328 49.079 131.487 48.611C130.655 48.143 130.001 47.493 129.524 46.661C129.048 45.829 128.809 44.8973 128.809 43.866C128.809 42.8347 129.043 41.903 129.511 41.071C129.988 40.239 130.642 39.589 131.474 39.121C132.315 38.653 133.255 38.419 134.295 38.419C135.335 38.419 136.271 38.653 137.103 39.121C137.944 39.589 138.603 40.239 139.079 41.071C139.556 41.903 139.794 42.8347 139.794 43.866C139.794 44.8973 139.556 45.829 139.079 46.661C138.611 47.493 137.957 48.143 137.116 48.611C136.284 49.079 135.348 49.313 134.308 49.313ZM134.308 48.065C135.088 48.065 135.79 47.8873 136.414 47.532C137.047 47.168 137.541 46.6697 137.896 46.037C138.252 45.3957 138.429 44.672 138.429 43.866C138.429 43.06 138.252 42.3407 137.896 41.708C137.541 41.0667 137.047 40.5683 136.414 40.213C135.79 39.849 135.084 39.667 134.295 39.667C133.507 39.667 132.8 39.849 132.176 40.213C131.552 40.5683 131.063 41.0667 130.707 41.708C130.352 42.3407 130.174 43.06 130.174 43.866C130.174 44.672 130.352 45.3957 130.707 46.037C131.063 46.6697 131.557 47.168 132.189 47.532C132.822 47.8873 133.528 48.065 134.308 48.065ZM148.872 38.666V39.888H142.957V43.437L148.3 43.424V44.646H142.957V49.079H141.592V38.666H148.872ZM158.975 49.313C157.943 49.313 157.012 49.079 156.18 48.611C155.348 48.143 154.693 47.493 154.217 46.661C153.749 45.829 153.515 44.8973 153.515 43.866C153.515 42.8347 153.749 41.903 154.217 41.071C154.693 40.239 155.348 39.589 156.18 39.121C157.012 38.653 157.943 38.419 158.975 38.419C159.85 38.419 160.639 38.5793 161.341 38.9C162.051 39.212 162.636 39.6497 163.096 40.213C163.564 40.7763 163.889 41.4263 164.071 42.163H162.68C162.454 41.409 162.017 40.8067 161.367 40.356C160.717 39.9053 159.928 39.68 159.001 39.68C158.212 39.68 157.506 39.862 156.882 40.226C156.258 40.5813 155.768 41.0753 155.413 41.708C155.057 42.3407 154.88 43.06 154.88 43.866C154.88 44.6633 155.057 45.3827 155.413 46.024C155.768 46.6567 156.258 47.155 156.882 47.519C157.514 47.8743 158.221 48.052 159.001 48.052C159.633 48.052 160.214 47.9393 160.743 47.714C161.271 47.48 161.709 47.1637 162.056 46.765C162.411 46.3663 162.654 45.92 162.784 45.426H164.175C164.019 46.154 163.702 46.8127 163.226 47.402C162.758 47.9913 162.155 48.455 161.419 48.793C160.682 49.1397 159.867 49.313 158.975 49.313ZM170.96 49.313C169.92 49.313 168.98 49.079 168.139 48.611C167.307 48.143 166.653 47.493 166.176 46.661C165.699 45.829 165.461 44.8973 165.461 43.866C165.461 42.8347 165.695 41.903 166.163 41.071C166.64 40.239 167.294 39.589 168.126 39.121C168.967 38.653 169.907 38.419 170.947 38.419C171.987 38.419 172.923 38.653 173.755 39.121C174.596 39.589 175.254 40.239 175.731 41.071C176.208 41.903 176.446 42.8347 176.446 43.866C176.446 44.8973 176.208 45.829 175.731 46.661C175.263 47.493 174.609 48.143 173.768 48.611C172.936 49.079 172 49.313 170.96 49.313ZM170.96 48.065C171.74 48.065 172.442 47.8873 173.066 47.532C173.699 47.168 174.193 46.6697 174.548 46.037C174.903 45.3957 175.081 44.672 175.081 43.866C175.081 43.06 174.903 42.3407 174.548 41.708C174.193 41.0667 173.699 40.5683 173.066 40.213C172.442 39.849 171.736 39.667 170.947 39.667C170.158 39.667 169.452 39.849 168.828 40.213C168.204 40.5683 167.714 41.0667 167.359 41.708C167.004 42.3407 166.826 43.06 166.826 43.866C166.826 44.672 167.004 45.3957 167.359 46.037C167.714 46.6697 168.208 47.168 168.841 47.532C169.474 47.8873 170.18 48.065 170.96 48.065ZM181.935 38.666C183.114 38.666 184.128 38.8827 184.977 39.316C185.826 39.7493 186.476 40.3603 186.927 41.149C187.378 41.929 187.603 42.839 187.603 43.879C187.603 44.919 187.378 45.829 186.927 46.609C186.485 47.389 185.835 47.9957 184.977 48.429C184.128 48.8623 183.114 49.079 181.935 49.079H178.243V38.666H181.935ZM181.974 47.844C183.3 47.844 184.34 47.4973 185.094 46.804C185.848 46.1107 186.225 45.1357 186.225 43.879C186.225 42.6223 185.848 41.643 185.094 40.941C184.34 40.239 183.3 39.888 181.974 39.888H179.608V47.844H181.974ZM196.799 38.666V39.875H190.767V43.151H196.344V44.36H190.767V47.87H196.916V49.079H189.402V38.666H196.799ZM206.993 45.595V49.079H205.615V45.595L201.533 38.666H203.08L206.356 44.321L209.736 38.666H211.205L206.993 45.595ZM216.79 49.313C215.75 49.313 214.81 49.079 213.969 48.611C213.137 48.143 212.483 47.493 212.006 46.661C211.529 45.829 211.291 44.8973 211.291 43.866C211.291 42.8347 211.525 41.903 211.993 41.071C212.47 40.239 213.124 39.589 213.956 39.121C214.797 38.653 215.737 38.419 216.777 38.419C217.817 38.419 218.753 38.653 219.585 39.121C220.426 39.589 221.084 40.239 221.561 41.071C222.038 41.903 222.276 42.8347 222.276 43.866C222.276 44.8973 222.038 45.829 221.561 46.661C221.093 47.493 220.439 48.143 219.598 48.611C218.766 49.079 217.83 49.313 216.79 49.313ZM216.79 48.065C217.57 48.065 218.272 47.8873 218.896 47.532C219.529 47.168 220.023 46.6697 220.378 46.037C220.733 45.3957 220.911 44.672 220.911 43.866C220.911 43.06 220.733 42.3407 220.378 41.708C220.023 41.0667 219.529 40.5683 218.896 40.213C218.272 39.849 217.566 39.667 216.777 39.667C215.988 39.667 215.282 39.849 214.658 40.213C214.034 40.5683 213.544 41.0667 213.189 41.708C212.834 42.3407 212.656 43.06 212.656 43.866C212.656 44.672 212.834 45.3957 213.189 46.037C213.544 46.6697 214.038 47.168 214.671 47.532C215.304 47.8873 216.01 48.065 216.79 48.065ZM225.295 38.666V44.594C225.295 45.2873 225.421 45.8983 225.672 46.427C225.932 46.947 226.3 47.3543 226.777 47.649C227.262 47.935 227.83 48.078 228.48 48.078C229.13 48.078 229.693 47.935 230.17 47.649C230.647 47.3543 231.011 46.947 231.262 46.427C231.522 45.8983 231.652 45.2873 231.652 44.594V38.666H233.017V44.594C233.017 45.5387 232.831 46.3707 232.458 47.09C232.085 47.8007 231.557 48.351 230.872 48.741C230.187 49.131 229.39 49.326 228.48 49.326C227.57 49.326 226.768 49.131 226.075 48.741C225.39 48.351 224.862 47.8007 224.489 47.09C224.116 46.3707 223.93 45.5387 223.93 44.594V38.666H225.295ZM53.456 53.666L50.284 64.079H48.906L46.397 55.772L43.875 64.079H42.497L39.338 53.666H40.755L43.225 62.012L45.682 53.666H47.138L49.608 62.038L52.078 53.666H53.456ZM61.7463 64.079L59.3803 60.374C59.1203 60.3913 58.9253 60.4 58.7953 60.4H56.2603V64.079H54.8953V53.666H58.7953C59.662 53.666 60.4073 53.8047 61.0313 54.082C61.664 54.3507 62.145 54.7407 62.4743 55.252C62.8037 55.7547 62.9683 56.3483 62.9683 57.033C62.9683 57.7697 62.7777 58.4023 62.3963 58.931C62.015 59.4597 61.4647 59.8497 60.7453 60.101L63.3583 64.079H61.7463ZM58.6913 59.178C59.61 59.178 60.325 58.996 60.8363 58.632C61.3477 58.2593 61.6033 57.7263 61.6033 57.033C61.6033 56.3397 61.3477 55.811 60.8363 55.447C60.325 55.0743 59.61 54.888 58.6913 54.888H56.2603V59.178H58.6913ZM66.1754 64.079H64.8104V53.666H66.1754V64.079ZM72.9009 54.888V64.079H71.5359V54.888H67.7919V53.666H76.6319V54.888H72.9009ZM85.639 53.666V54.875H79.607V58.151H85.184V59.36H79.607V62.87H85.756V64.079H78.242V53.666H85.639ZM92.5182 64.079H91.1532V53.666H92.5182V64.079ZM98.5936 53.419C99.3476 53.419 100.028 53.5533 100.635 53.822C101.241 54.082 101.727 54.4503 102.091 54.927C102.455 55.4037 102.658 55.941 102.702 56.539H101.298C101.22 55.967 100.934 55.499 100.44 55.135C99.9543 54.771 99.3173 54.589 98.5286 54.589C97.7313 54.589 97.103 54.7407 96.6436 55.044C96.193 55.3387 95.9676 55.7243 95.9676 56.201C95.9676 56.5563 96.076 56.8553 96.2926 57.098C96.5093 57.332 96.843 57.5357 97.2936 57.709C97.753 57.8823 98.3726 58.0513 99.1526 58.216C100.409 58.4847 101.319 58.8703 101.883 59.373C102.455 59.867 102.741 60.5083 102.741 61.297C102.741 61.9037 102.559 62.4367 102.195 62.896C101.831 63.3467 101.332 63.6933 100.7 63.936C100.067 64.1873 99.365 64.313 98.5936 64.313C97.7876 64.313 97.064 64.1743 96.4226 63.897C95.79 63.6197 95.283 63.2297 94.9016 62.727C94.5203 62.2243 94.308 61.6393 94.2646 60.972H95.6686C95.738 61.6133 96.0413 62.1333 96.5786 62.532C97.1246 62.9307 97.8266 63.13 98.6846 63.13C99.196 63.13 99.6553 63.0563 100.063 62.909C100.47 62.7617 100.786 62.5537 101.012 62.285C101.237 62.0163 101.35 61.713 101.35 61.375C101.35 60.9937 101.241 60.6773 101.025 60.426C100.808 60.1747 100.47 59.9623 100.011 59.789C99.56 59.607 98.936 59.4337 98.1386 59.269C96.9253 59.0177 96.0283 58.6537 95.4476 58.177C94.8756 57.7003 94.5896 57.0417 94.5896 56.201C94.5896 55.6377 94.7586 55.148 95.0966 54.732C95.4433 54.3073 95.92 53.9823 96.5266 53.757C97.1333 53.5317 97.8223 53.419 98.5936 53.419ZM114.744 61.505H109.739L108.699 64.079H107.269L111.559 53.666H113.002L117.279 64.079H115.784L114.744 61.505ZM114.263 60.296L112.248 55.265L110.22 60.296H114.263ZM126.142 53.419C126.896 53.419 127.577 53.5533 128.183 53.822C128.79 54.082 129.275 54.4503 129.639 54.927C130.003 55.4037 130.207 55.941 130.25 56.539H128.846C128.768 55.967 128.482 55.499 127.988 55.135C127.503 54.771 126.866 54.589 126.077 54.589C125.28 54.589 124.652 54.7407 124.192 55.044C123.742 55.3387 123.516 55.7243 123.516 56.201C123.516 56.5563 123.625 56.8553 123.841 57.098C124.058 57.332 124.392 57.5357 124.842 57.709C125.302 57.8823 125.921 58.0513 126.701 58.216C127.958 58.4847 128.868 58.8703 129.431 59.373C130.003 59.867 130.289 60.5083 130.289 61.297C130.289 61.9037 130.107 62.4367 129.743 62.896C129.379 63.3467 128.881 63.6933 128.248 63.936C127.616 64.1873 126.914 64.313 126.142 64.313C125.336 64.313 124.613 64.1743 123.971 63.897C123.339 63.6197 122.832 63.2297 122.45 62.727C122.069 62.2243 121.857 61.6393 121.813 60.972H123.217C123.287 61.6133 123.59 62.1333 124.127 62.532C124.673 62.9307 125.375 63.13 126.233 63.13C126.745 63.13 127.204 63.0563 127.611 62.909C128.019 62.7617 128.335 62.5537 128.56 62.285C128.786 62.0163 128.898 61.713 128.898 61.375C128.898 60.9937 128.79 60.6773 128.573 60.426C128.357 60.1747 128.019 59.9623 127.559 59.789C127.109 59.607 126.485 59.4337 125.687 59.269C124.474 59.0177 123.577 58.6537 122.996 58.177C122.424 57.7003 122.138 57.0417 122.138 56.201C122.138 55.6377 122.307 55.148 122.645 54.732C122.992 54.3073 123.469 53.9823 124.075 53.757C124.682 53.5317 125.371 53.419 126.142 53.419ZM136.365 54.888V64.079H135V54.888H131.256V53.666H140.096V54.888H136.365ZM146.026 64.313C144.986 64.313 144.046 64.079 143.205 63.611C142.373 63.143 141.719 62.493 141.242 61.661C140.766 60.829 140.527 59.8973 140.527 58.866C140.527 57.8347 140.761 56.903 141.229 56.071C141.706 55.239 142.36 54.589 143.192 54.121C144.033 53.653 144.973 53.419 146.013 53.419C147.053 53.419 147.989 53.653 148.821 54.121C149.662 54.589 150.321 55.239 150.797 56.071C151.274 56.903 151.512 57.8347 151.512 58.866C151.512 59.8973 151.274 60.829 150.797 61.661C150.329 62.493 149.675 63.143 148.834 63.611C148.002 64.079 147.066 64.313 146.026 64.313ZM146.026 63.065C146.806 63.065 147.508 62.8873 148.132 62.532C148.765 62.168 149.259 61.6697 149.614 61.037C149.97 60.3957 150.147 59.672 150.147 58.866C150.147 58.06 149.97 57.3407 149.614 56.708C149.259 56.0667 148.765 55.5683 148.132 55.213C147.508 54.849 146.802 54.667 146.013 54.667C145.225 54.667 144.518 54.849 143.894 55.213C143.27 55.5683 142.781 56.0667 142.425 56.708C142.07 57.3407 141.892 58.06 141.892 58.866C141.892 59.672 142.07 60.3957 142.425 61.037C142.781 61.6697 143.275 62.168 143.907 62.532C144.54 62.8873 145.246 63.065 146.026 63.065ZM160.16 64.079L157.794 60.374C157.534 60.3913 157.339 60.4 157.209 60.4H154.674V64.079H153.309V53.666H157.209C158.076 53.666 158.821 53.8047 159.445 54.082C160.078 54.3507 160.559 54.7407 160.888 55.252C161.218 55.7547 161.382 56.3483 161.382 57.033C161.382 57.7697 161.192 58.4023 160.81 58.931C160.429 59.4597 159.879 59.8497 159.159 60.101L161.772 64.079H160.16ZM157.105 59.178C158.024 59.178 158.739 58.996 159.25 58.632C159.762 58.2593 160.017 57.7263 160.017 57.033C160.017 56.3397 159.762 55.811 159.25 55.447C158.739 55.0743 158.024 54.888 157.105 54.888H154.674V59.178H157.105ZM167.409 60.595V64.079H166.031V60.595L161.949 53.666H163.496L166.772 59.321L170.152 53.666H171.621L167.409 60.595ZM173.635 55.382C173.886 55.382 174.099 55.473 174.272 55.655C174.445 55.8283 174.532 56.0407 174.532 56.292C174.532 56.5433 174.445 56.76 174.272 56.942C174.099 57.1153 173.886 57.202 173.635 57.202C173.375 57.202 173.158 57.1153 172.985 56.942C172.812 56.76 172.725 56.5433 172.725 56.292C172.725 56.0407 172.812 55.8283 172.985 55.655C173.158 55.473 173.375 55.382 173.635 55.382ZM172.673 63.546L173.063 60.647H174.376L173.739 63.546H172.673ZM181.254 53.666L185.271 60.738L189.288 53.666H190.484V64.079H189.119V56.396L185.765 62.324H184.777L181.423 56.396V64.079H180.058V53.666H181.254ZM199.333 61.505H194.328L193.288 64.079H191.858L196.148 53.666H197.591L201.868 64.079H200.373L199.333 61.505ZM198.852 60.296L196.837 55.265L194.809 60.296H198.852ZM206.49 59.438L204.618 61.518V64.079H203.253V53.666H204.618V59.672L209.961 53.666H211.664L207.374 58.45L211.963 64.079H210.221L206.49 59.438ZM220.755 53.666V54.875H214.723V58.151H220.3V59.36H214.723V62.87H220.872V64.079H213.358V53.666H220.755ZM230.104 53.419C230.858 53.419 231.539 53.5533 232.145 53.822C232.752 54.082 233.237 54.4503 233.601 54.927C233.965 55.4037 234.169 55.941 234.212 56.539H232.808C232.73 55.967 232.444 55.499 231.95 55.135C231.465 54.771 230.828 54.589 230.039 54.589C229.242 54.589 228.614 54.7407 228.154 55.044C227.704 55.3387 227.478 55.7243 227.478 56.201C227.478 56.5563 227.587 56.8553 227.803 57.098C228.02 57.332 228.354 57.5357 228.804 57.709C229.264 57.8823 229.883 58.0513 230.663 58.216C231.92 58.4847 232.83 58.8703 233.393 59.373C233.965 59.867 234.251 60.5083 234.251 61.297C234.251 61.9037 234.069 62.4367 233.705 62.896C233.341 63.3467 232.843 63.6933 232.21 63.936C231.578 64.1873 230.876 64.313 230.104 64.313C229.298 64.313 228.575 64.1743 227.933 63.897C227.301 63.6197 226.794 63.2297 226.412 62.727C226.031 62.2243 225.819 61.6393 225.775 60.972H227.179C227.249 61.6133 227.552 62.1333 228.089 62.532C228.635 62.9307 229.337 63.13 230.195 63.13C230.707 63.13 231.166 63.0563 231.573 62.909C231.981 62.7617 232.297 62.5537 232.522 62.285C232.748 62.0163 232.86 61.713 232.86 61.375C232.86 60.9937 232.752 60.6773 232.535 60.426C232.319 60.1747 231.981 59.9623 231.521 59.789C231.071 59.607 230.447 59.4337 229.649 59.269C228.436 59.0177 227.539 58.6537 226.958 58.177C226.386 57.7003 226.1 57.0417 226.1 56.201C226.1 55.6377 226.269 55.148 226.607 54.732C226.954 54.3073 227.431 53.9823 228.037 53.757C228.644 53.5317 229.333 53.419 230.104 53.419ZM237.203 53.666V59.594C237.203 60.2873 237.329 60.8983 237.58 61.427C237.84 61.947 238.209 62.3543 238.685 62.649C239.171 62.935 239.738 63.078 240.388 63.078C241.038 63.078 241.602 62.935 242.078 62.649C242.555 62.3543 242.919 61.947 243.17 61.427C243.43 60.8983 243.56 60.2873 243.56 59.594V53.666H244.925V59.594C244.925 60.5387 244.739 61.3707 244.366 62.09C243.994 62.8007 243.465 63.351 242.78 63.741C242.096 64.131 241.298 64.326 240.388 64.326C239.478 64.326 238.677 64.131 237.983 63.741C237.299 63.351 236.77 62.8007 236.397 62.09C236.025 61.3707 235.838 60.5387 235.838 59.594V53.666H237.203ZM253.865 64.079L251.499 60.374C251.239 60.3913 251.044 60.4 250.914 60.4H248.379V64.079H247.014V53.666H250.914C251.78 53.666 252.526 53.8047 253.15 54.082C253.782 54.3507 254.263 54.7407 254.593 55.252C254.922 55.7547 255.087 56.3483 255.087 57.033C255.087 57.7697 254.896 58.4023 254.515 58.931C254.133 59.4597 253.583 59.8497 252.864 60.101L255.477 64.079H253.865ZM250.81 59.178C251.728 59.178 252.443 58.996 252.955 58.632C253.466 58.2593 253.722 57.7263 253.722 57.033C253.722 56.3397 253.466 55.811 252.955 55.447C252.443 55.0743 251.728 54.888 250.81 54.888H248.379V59.178H250.81ZM264.326 53.666V54.875H258.294V58.151H263.871V59.36H258.294V62.87H264.443V64.079H256.929V53.666H264.326ZM41.483 79.079H40.118V68.666H41.483V79.079ZM48.2085 69.888V79.079H46.8435V69.888H43.0995V68.666H51.9395V69.888H48.2085ZM53.2896 71.149L53.1596 68.25H54.4206L54.2906 71.149H53.2896ZM60.1014 68.419C60.8554 68.419 61.5358 68.5533 62.1424 68.822C62.7491 69.082 63.2344 69.4503 63.5984 69.927C63.9624 70.4037 64.1661 70.941 64.2094 71.539H62.8054C62.7274 70.967 62.4414 70.499 61.9474 70.135C61.4621 69.771 60.8251 69.589 60.0364 69.589C59.2391 69.589 58.6108 69.7407 58.1514 70.044C57.7008 70.3387 57.4754 70.7243 57.4754 71.201C57.4754 71.5563 57.5838 71.8553 57.8004 72.098C58.0171 72.332 58.3508 72.5357 58.8014 72.709C59.2608 72.8823 59.8804 73.0513 60.6604 73.216C61.9171 73.4847 62.8271 73.8703 63.3904 74.373C63.9624 74.867 64.2484 75.5083 64.2484 76.297C64.2484 76.9037 64.0664 77.4367 63.7024 77.896C63.3384 78.3467 62.8401 78.6933 62.2074 78.936C61.5748 79.1873 60.8728 79.313 60.1014 79.313C59.2954 79.313 58.5718 79.1743 57.9304 78.897C57.2978 78.6197 56.7908 78.2297 56.4094 77.727C56.0281 77.2243 55.8158 76.6393 55.7724 75.972H57.1764C57.2458 76.6133 57.5491 77.1333 58.0864 77.532C58.6324 77.9307 59.3344 78.13 60.1924 78.13C60.7038 78.13 61.1631 78.0563 61.5704 77.909C61.9778 77.7617 62.2941 77.5537 62.5194 77.285C62.7448 77.0163 62.8574 76.713 62.8574 76.375C62.8574 75.9937 62.7491 75.6773 62.5324 75.426C62.3158 75.1747 61.9778 74.9623 61.5184 74.789C61.0678 74.607 60.4438 74.4337 59.6464 74.269C58.4331 74.0177 57.5361 73.6537 56.9554 73.177C56.3834 72.7003 56.0974 72.0417 56.0974 71.201C56.0974 70.6377 56.2664 70.148 56.6044 69.732C56.9511 69.3073 57.4278 68.9823 58.0344 68.757C58.6411 68.5317 59.3301 68.419 60.1014 68.419ZM82.9599 68.666L79.7879 79.079H78.4099L75.9009 70.772L73.3789 79.079H72.0009L68.8419 68.666H70.2589L72.7289 77.012L75.1859 68.666H76.6419L79.1119 77.038L81.5819 68.666H82.9599ZM89.1386 79.313C88.0986 79.313 87.1582 79.079 86.3176 78.611C85.4856 78.143 84.8312 77.493 84.3546 76.661C83.8779 75.829 83.6396 74.8973 83.6396 73.866C83.6396 72.8347 83.8736 71.903 84.3416 71.071C84.8182 70.239 85.4726 69.589 86.3046 69.121C87.1452 68.653 88.0856 68.419 89.1256 68.419C90.1656 68.419 91.1016 68.653 91.9336 69.121C92.7742 69.589 93.4329 70.239 93.9096 71.071C94.3862 71.903 94.6246 72.8347 94.6246 73.866C94.6246 74.8973 94.3862 75.829 93.9096 76.661C93.4416 77.493 92.7872 78.143 91.9466 78.611C91.1146 79.079 90.1786 79.313 89.1386 79.313ZM89.1386 78.065C89.9186 78.065 90.6206 77.8873 91.2446 77.532C91.8772 77.168 92.3712 76.6697 92.7266 76.037C93.0819 75.3957 93.2596 74.672 93.2596 73.866C93.2596 73.06 93.0819 72.3407 92.7266 71.708C92.3712 71.0667 91.8772 70.5683 91.2446 70.213C90.6206 69.849 89.9142 69.667 89.1256 69.667C88.3369 69.667 87.6306 69.849 87.0066 70.213C86.3826 70.5683 85.8929 71.0667 85.5376 71.708C85.1822 72.3407 85.0046 73.06 85.0046 73.866C85.0046 74.672 85.1822 75.3957 85.5376 76.037C85.8929 76.6697 86.3869 77.168 87.0196 77.532C87.6522 77.8873 88.3586 78.065 89.1386 78.065ZM103.273 79.079L100.907 75.374C100.647 75.3913 100.452 75.4 100.322 75.4H97.7867V79.079H96.4217V68.666H100.322C101.188 68.666 101.934 68.8047 102.558 69.082C103.19 69.3507 103.671 69.7407 104.001 70.252C104.33 70.7547 104.495 71.3483 104.495 72.033C104.495 72.7697 104.304 73.4023 103.923 73.931C103.541 74.4597 102.991 74.8497 102.272 75.101L104.885 79.079H103.273ZM100.218 74.178C101.136 74.178 101.851 73.996 102.363 73.632C102.874 73.2593 103.13 72.7263 103.13 72.033C103.13 71.3397 102.874 70.811 102.363 70.447C101.851 70.0743 101.136 69.888 100.218 69.888H97.7867V74.178H100.218ZM110.606 69.888V79.079H109.241V69.888H105.497V68.666H114.337V69.888H110.606ZM124.722 68.666V79.079H123.357V74.373H117.312V79.079H115.947V68.666H117.312V73.125H123.357V68.666H124.722ZM135.082 69.888V79.079H133.717V69.888H129.973V68.666H138.813V69.888H135.082ZM147.821 68.666V69.875H141.789V73.151H147.366V74.36H141.789V77.87H147.938V79.079H140.424V68.666H147.821ZM151.056 77.844H156.776V79.079H149.691V68.666H151.056V77.844ZM159.676 77.844H165.396V79.079H158.311V68.666H159.676V77.844ZM168.296 79.079H166.931V68.666H168.296V79.079ZM171.811 68.666L178.116 76.778V68.601H179.494V79.014H178.207L171.902 70.902V79.079H170.537V68.666H171.811ZM186.701 79.313C185.652 79.313 184.712 79.079 183.88 78.611C183.056 78.143 182.411 77.4973 181.943 76.674C181.475 75.842 181.241 74.906 181.241 73.866C181.241 72.826 181.475 71.8943 181.943 71.071C182.411 70.239 183.056 69.589 183.88 69.121C184.712 68.653 185.652 68.419 186.701 68.419C187.559 68.419 188.347 68.575 189.067 68.887C189.795 69.1903 190.401 69.6107 190.887 70.148C191.372 70.6853 191.706 71.2877 191.888 71.955H190.406C190.267 71.5217 190.016 71.1317 189.652 70.785C189.296 70.4383 188.863 70.1653 188.352 69.966C187.849 69.7667 187.307 69.667 186.727 69.667C185.938 69.667 185.227 69.849 184.595 70.213C183.971 70.5683 183.481 71.0667 183.126 71.708C182.779 72.3407 182.606 73.06 182.606 73.866C182.606 74.672 182.779 75.4 183.126 76.05C183.481 76.6913 183.975 77.194 184.608 77.558C185.24 77.9133 185.955 78.091 186.753 78.091C187.455 78.091 188.087 77.948 188.651 77.662C189.223 77.376 189.682 76.986 190.029 76.492C190.375 75.9893 190.575 75.426 190.627 74.802H186.48V73.619H192.083V74.087C192.083 75.0923 191.844 75.9937 191.368 76.791C190.9 77.5797 190.254 78.195 189.431 78.637C188.616 79.0877 187.706 79.313 186.701 79.313ZM193.465 79.248C193.205 79.248 192.984 79.157 192.802 78.975C192.629 78.8017 192.542 78.585 192.542 78.325C192.542 78.065 192.629 77.8483 192.802 77.675C192.984 77.493 193.205 77.402 193.465 77.402C193.725 77.402 193.942 77.493 194.115 77.675C194.288 77.8483 194.375 78.065 194.375 78.325C194.375 78.585 194.288 78.8017 194.115 78.975C193.942 79.157 193.725 79.248 193.465 79.248Z" fill="#DCEA88"/>
<path d="M16.751 81.297C17.1757 81.2797 17.5657 81.1713 17.921 80.972C18.2677 80.764 18.545 80.4693 18.753 80.088C18.961 79.698 19.065 79.2387 19.065 78.71C19.065 77.8953 18.8267 77.2583 18.35 76.799C17.8647 76.331 17.2233 76.097 16.426 76.097L9.666 76.097L9.666 74.719L16.426 74.719C17.1973 74.719 17.8777 74.888 18.467 75.226C19.0563 75.5553 19.5113 76.0233 19.832 76.63C20.1527 77.228 20.313 77.9213 20.313 78.71C20.313 79.4813 20.157 80.166 19.845 80.764C19.533 81.362 19.1083 81.8257 18.571 82.155C18.0337 82.4757 17.427 82.6447 16.751 82.662L16.751 81.297ZM16.595 67.9725L20.079 67.9725L20.079 69.3505L16.595 69.3505L9.666 73.4325L9.666 71.8855L15.321 68.6095L9.666 65.2295L9.666 63.7605L16.595 67.9725ZM16.751 63.9552C17.1757 63.9379 17.5657 63.8295 17.921 63.6302C18.2677 63.4222 18.545 63.1275 18.753 62.7462C18.961 62.3562 19.065 61.8969 19.065 61.3682C19.065 60.5535 18.8267 59.9165 18.35 59.4572C17.8647 58.9892 17.2233 58.7552 16.426 58.7552L9.666 58.7552L9.666 57.3772L16.426 57.3772C17.1973 57.3772 17.8777 57.5462 18.467 57.8842C19.0563 58.2135 19.5113 58.6815 19.832 59.2882C20.1527 59.8862 20.313 60.5795 20.313 61.3682C20.313 62.1395 20.157 62.8242 19.845 63.4222C19.533 64.0202 19.1083 64.4839 18.571 64.8132C18.0337 65.1339 17.427 65.3029 16.751 65.3202L16.751 63.9552ZM19.195 52.1482L15.49 48.4562C14.8227 47.7975 14.2637 47.3252 13.813 47.0392C13.3537 46.7532 12.9377 46.6102 12.565 46.6102C11.9583 46.6102 11.486 46.8008 11.148 47.1822C10.8013 47.5635 10.628 48.0835 10.628 48.7422C10.628 49.1928 10.732 49.5828 10.94 49.9122C11.1393 50.2328 11.408 50.4798 11.746 50.6532C12.084 50.8178 12.4523 50.9002 12.851 50.9002L12.851 52.2652C12.2183 52.2652 11.642 52.1222 11.122 51.8362C10.602 51.5415 10.1903 51.1255 9.887 50.5882C9.575 50.0508 9.419 49.4312 9.419 48.7292C9.419 48.0358 9.549 47.4292 9.809 46.9092C10.069 46.3805 10.4373 45.9732 10.914 45.6872C11.3907 45.4012 11.9367 45.2582 12.552 45.2582C13.098 45.2582 13.6397 45.4228 14.177 45.7522C14.7143 46.0815 15.3947 46.6492 16.218 47.4552L18.896 50.1852L18.896 44.9072L20.079 44.9072L20.079 52.1482L19.195 52.1482ZM13.488 41.1798C13.3233 40.8331 13.241 40.4605 13.241 40.0618C13.241 39.3858 13.3883 38.7705 13.683 38.2158C13.9777 37.6525 14.3893 37.2105 14.918 36.8898C15.4467 36.5605 16.0577 36.3958 16.751 36.3958C17.453 36.3958 18.077 36.5648 18.623 36.9028C19.1603 37.2321 19.5763 37.6828 19.871 38.2548C20.1657 38.8268 20.313 39.4638 20.313 40.1658C20.313 40.8678 20.1657 41.5091 19.871 42.0898C19.5763 42.6618 19.1603 43.1168 18.623 43.4548C18.077 43.7841 17.453 43.9488 16.751 43.9488C16.2397 43.9488 15.763 43.8665 15.321 43.7018C14.879 43.5371 14.4023 43.2815 13.891 42.9348L9.666 40.1138L9.666 38.5538L13.488 41.1798ZM19.13 40.1658C19.13 39.6805 19.026 39.2558 18.818 38.8918C18.61 38.5191 18.3283 38.2331 17.973 38.0338C17.609 37.8345 17.206 37.7348 16.764 37.7348C16.3133 37.7348 15.9103 37.8345 15.555 38.0338C15.191 38.2331 14.905 38.5191 14.697 38.8918C14.489 39.2558 14.385 39.6805 14.385 40.1658C14.385 40.6598 14.489 41.0931 14.697 41.4658C14.905 41.8298 15.191 42.1115 15.555 42.3108C15.919 42.5101 16.322 42.6098 16.764 42.6098C17.206 42.6098 17.609 42.5101 17.973 42.3108C18.3283 42.1115 18.61 41.8298 18.818 41.4658C19.026 41.0931 19.13 40.6598 19.13 40.1658Z" fill="#DCEA88"/>
<path d="M265.637 18.195L269.329 14.49C269.988 13.8227 270.46 13.2637 270.746 12.813C271.032 12.3537 271.175 11.9377 271.175 11.565C271.175 10.9583 270.984 10.486 270.603 10.148C270.222 9.80133 269.702 9.628 269.043 9.628C268.592 9.628 268.202 9.732 267.873 9.94C267.552 10.1393 267.305 10.408 267.132 10.746C266.967 11.084 266.885 11.4523 266.885 11.851H265.52C265.52 11.2183 265.663 10.642 265.949 10.122C266.244 9.602 266.66 9.19033 267.197 8.887C267.734 8.575 268.354 8.419 269.056 8.419C269.749 8.419 270.356 8.549 270.876 8.809C271.405 9.069 271.812 9.43733 272.098 9.914C272.384 10.3907 272.527 10.9367 272.527 11.552C272.527 12.098 272.362 12.6397 272.033 13.177C271.704 13.7143 271.136 14.3947 270.33 15.218L267.6 17.896H272.878V19.079H265.637V18.195ZM276.605 12.488C276.952 12.3233 277.325 12.241 277.723 12.241C278.399 12.241 279.015 12.3883 279.569 12.683C280.133 12.9777 280.575 13.3893 280.895 13.918C281.225 14.4467 281.389 15.0577 281.389 15.751C281.389 16.453 281.22 17.077 280.882 17.623C280.553 18.1603 280.102 18.5763 279.53 18.871C278.958 19.1657 278.321 19.313 277.619 19.313C276.917 19.313 276.276 19.1657 275.695 18.871C275.123 18.5763 274.668 18.1603 274.33 17.623C274.001 17.077 273.836 16.453 273.836 15.751C273.836 15.2397 273.919 14.763 274.083 14.321C274.248 13.879 274.504 13.4023 274.85 12.891L277.671 8.666H279.231L276.605 12.488ZM277.619 18.13C278.105 18.13 278.529 18.026 278.893 17.818C279.266 17.61 279.552 17.3283 279.751 16.973C279.951 16.609 280.05 16.206 280.05 15.764C280.05 15.3133 279.951 14.9103 279.751 14.555C279.552 14.191 279.266 13.905 278.893 13.697C278.529 13.489 278.105 13.385 277.619 13.385C277.125 13.385 276.692 13.489 276.319 13.697C275.955 13.905 275.674 14.191 275.474 14.555C275.275 14.919 275.175 15.322 275.175 15.764C275.175 16.206 275.275 16.609 275.474 16.973C275.674 17.3283 275.955 17.61 276.319 17.818C276.692 18.026 277.125 18.13 277.619 18.13Z" fill="#DCEA88"/>
</svg>
