<svg width="133" height="77" viewBox="0 0 133 77" fill="none" xmlns="http://www.w3.org/2000/svg">
<path d="M132.5 38.5C132.5 48.8779 125.23 58.3677 113.272 65.2909C101.327 72.2066 84.7915 76.5 66.5 76.5C48.2085 76.5 31.6732 72.2066 19.7279 65.2909C7.76971 58.3677 0.5 48.8779 0.5 38.5C0.5 28.1221 7.76971 18.6323 19.7279 11.7091C31.6732 4.79343 48.2085 0.5 66.5 0.5C84.7915 0.5 101.327 4.79343 113.272 11.7091C125.23 18.6323 132.5 28.1221 132.5 38.5Z" stroke="#DCEA88"/>
<path d="M29.393 32.2V46H27.921V32.2H29.393ZM35.58 45.287L35.534 46H29.347V45.287H35.58ZM34.499 38.755V39.445H29.347V38.755H34.499ZM35.557 32.2V32.913H29.347V32.2H35.557ZM36.868 42.711L35.603 46H32.107L32.889 45.287C33.6557 45.287 34.269 45.1797 34.729 44.965C35.2043 44.735 35.5877 44.4283 35.879 44.045C36.1703 43.6463 36.4233 43.2017 36.638 42.711H36.868ZM34.499 39.399V40.71H34.246V40.411C34.246 40.1503 34.1693 39.928 34.016 39.744C33.8627 39.5447 33.625 39.445 33.303 39.445V39.399H34.499ZM34.499 37.49V38.801H33.303V38.755C33.625 38.755 33.8627 38.663 34.016 38.479C34.1693 38.2797 34.246 38.0497 34.246 37.789V37.49H34.499ZM35.557 32.844V34.431H35.304V34.086C35.304 33.764 35.1967 33.488 34.982 33.258C34.7827 33.028 34.5067 32.913 34.154 32.913V32.844H35.557ZM35.557 31.832V32.43L32.935 32.2C33.4103 32.2 33.9163 32.1617 34.453 32.085C34.9897 31.993 35.3577 31.9087 35.557 31.832ZM27.967 44.528L28.266 46H26.265V45.77C26.265 45.77 26.3187 45.77 26.426 45.77C26.5333 45.77 26.587 45.77 26.587 45.77C26.9703 45.77 27.2847 45.6473 27.53 45.402C27.7753 45.1567 27.9057 44.8653 27.921 44.528H27.967ZM27.967 33.649H27.921C27.9057 33.2963 27.7753 33.005 27.53 32.775C27.2847 32.545 26.9703 32.43 26.587 32.43C26.587 32.43 26.5333 32.43 26.426 32.43C26.3187 32.43 26.265 32.43 26.265 32.43V32.2H28.266L27.967 33.649ZM41.7877 31.878C42.217 31.878 42.5927 31.8933 42.9147 31.924C43.2367 31.9547 43.5127 31.993 43.7427 32.039C43.988 32.0697 44.195 32.1157 44.3637 32.177C44.5477 32.223 44.7087 32.269 44.8467 32.315L44.8697 34.592H44.5937C44.5937 33.9633 44.379 33.4727 43.9497 33.12C43.5203 32.752 42.8533 32.568 41.9487 32.568C41.182 32.568 40.5227 32.7827 39.9707 33.212C39.434 33.626 39.1733 34.1397 39.1887 34.753C39.1887 34.9523 39.2117 35.1593 39.2577 35.374C39.319 35.5733 39.411 35.7727 39.5337 35.972C39.6717 36.1713 39.8557 36.3707 40.0857 36.57L44.7317 40.158C45.0843 40.4493 45.345 40.825 45.5137 41.285C45.6823 41.7297 45.7743 42.1743 45.7897 42.619C45.805 43.2937 45.6287 43.9147 45.2607 44.482C44.8927 45.0493 44.3943 45.5017 43.7657 45.839C43.1523 46.161 42.47 46.322 41.7187 46.322C41.274 46.322 40.791 46.2837 40.2697 46.207C39.7637 46.1303 39.2883 46.0153 38.8437 45.862C38.399 45.6933 38.031 45.4863 37.7397 45.241C37.6937 45.0263 37.6707 44.758 37.6707 44.436C37.6707 44.0987 37.6937 43.746 37.7397 43.378C37.801 43.01 37.8777 42.6803 37.9697 42.389H38.2457C38.1843 43.079 38.284 43.6693 38.5447 44.16C38.8053 44.6507 39.1887 45.0263 39.6947 45.287C40.2007 45.5323 40.791 45.6473 41.4657 45.632C42.4163 45.6013 43.16 45.3637 43.6967 44.919C44.2487 44.459 44.5247 43.8533 44.5247 43.102C44.5247 42.734 44.4557 42.4043 44.3177 42.113C44.195 41.8063 43.988 41.5227 43.6967 41.262L39.0967 37.72C38.6673 37.352 38.376 36.9457 38.2227 36.501C38.0693 36.0563 37.9927 35.6347 37.9927 35.236C37.9927 34.6073 38.1613 34.04 38.4987 33.534C38.836 33.028 39.2883 32.6293 39.8557 32.338C40.4383 32.0313 41.0823 31.878 41.7877 31.878ZM44.8237 32.085L44.8467 32.499H43.2137V32.085H44.8237ZM53.2857 32.269V46H51.7907V32.269H53.2857ZM58.8517 32.177V32.867H46.2247V32.177H58.8517ZM58.8517 32.821V34.408H58.5987V34.04C58.5987 33.718 58.4914 33.4497 58.2767 33.235C58.0774 33.005 57.8014 32.8823 57.4487 32.867V32.821H58.8517ZM58.8517 31.809V32.407L56.2757 32.177C56.5824 32.177 56.9044 32.1617 57.2417 32.131C57.5944 32.085 57.9164 32.0313 58.2077 31.97C58.499 31.9087 58.7137 31.855 58.8517 31.809ZM51.8367 44.528V46H50.1577V45.77C50.173 45.77 50.219 45.77 50.2957 45.77C50.3877 45.77 50.4337 45.77 50.4337 45.77C50.8017 45.77 51.116 45.6473 51.3767 45.402C51.6374 45.1567 51.7754 44.8653 51.7907 44.528H51.8367ZM53.2167 44.528H53.2857C53.301 44.8653 53.439 45.1567 53.6997 45.402C53.9604 45.6473 54.2747 45.77 54.6427 45.77C54.6427 45.77 54.681 45.77 54.7577 45.77C54.8497 45.77 54.8957 45.77 54.8957 45.77V46H53.2167V44.528ZM47.6277 32.821V32.867C47.275 32.8823 46.9914 33.005 46.7767 33.235C46.5774 33.4497 46.4777 33.718 46.4777 34.04V34.408H46.2247V32.821H47.6277ZM46.2247 31.809C46.3627 31.855 46.5697 31.9087 46.8457 31.97C47.137 32.0313 47.459 32.085 47.8117 32.131C48.1644 32.1617 48.494 32.177 48.8007 32.177L46.2247 32.407V31.809ZM58.4794 46.092C58.188 46.092 57.9427 45.9923 57.7434 45.793C57.544 45.5937 57.4444 45.3483 57.4444 45.057C57.4444 44.7657 57.544 44.5203 57.7434 44.321C57.9427 44.1217 58.188 44.022 58.4794 44.022C58.7707 44.022 59.016 44.1217 59.2154 44.321C59.4147 44.5203 59.5144 44.7657 59.5144 45.057C59.5144 45.3483 59.4147 45.5937 59.2154 45.793C59.016 45.9923 58.7707 46.092 58.4794 46.092ZM61.4857 33.672L61.0717 31.073C61.3631 30.7817 61.7387 30.5287 62.1987 30.314C62.6587 30.084 63.1494 29.9077 63.6707 29.785C64.1921 29.647 64.6981 29.578 65.1887 29.578C66.2007 29.578 67.0824 29.762 67.8337 30.13C68.6004 30.498 69.1907 31.0193 69.6047 31.694C70.0187 32.3687 70.2257 33.1813 70.2257 34.132C70.2257 34.914 70.0494 35.7113 69.6967 36.524C69.3594 37.3213 68.9147 38.111 68.3627 38.893C67.8107 39.6597 67.2127 40.4033 66.5687 41.124C65.9247 41.8293 65.2961 42.4887 64.6827 43.102C64.0694 43.7 63.5327 44.2367 63.0727 44.712H68.3627C68.8227 44.712 69.1984 44.6507 69.4897 44.528C69.7964 44.4053 70.0647 44.1983 70.2947 43.907C70.5401 43.6157 70.7931 43.2323 71.0537 42.757H71.2837L70.2027 46H60.7497V45.77C61.2864 45.2793 61.8921 44.6813 62.5667 43.976C63.2567 43.2553 63.9467 42.481 64.6367 41.653C65.3267 40.825 65.9631 39.974 66.5457 39.1C67.1284 38.226 67.5961 37.375 67.9487 36.547C68.3167 35.7037 68.5007 34.9293 68.5007 34.224C68.5007 32.982 68.2017 32.0083 67.6037 31.303C67.0211 30.5823 66.2161 30.2373 65.1887 30.268C64.1154 30.2833 63.2644 30.5823 62.6357 31.165C62.0071 31.7477 61.7004 32.5833 61.7157 33.672H61.4857ZM77.7866 29.578C78.906 29.578 79.8643 29.9153 80.6616 30.59C81.4743 31.2647 82.0953 32.2307 82.5246 33.488C82.9693 34.73 83.1916 36.2173 83.1916 37.95C83.1916 39.6827 82.9693 41.1777 82.5246 42.435C82.0953 43.677 81.4743 44.6353 80.6616 45.31C79.8643 45.9847 78.906 46.322 77.7866 46.322C76.6673 46.322 75.7013 45.9847 74.8886 45.31C74.0913 44.6353 73.4703 43.677 73.0256 42.435C72.5963 41.1777 72.3816 39.6827 72.3816 37.95C72.3816 36.2173 72.5963 34.73 73.0256 33.488C73.4703 32.2307 74.0913 31.2647 74.8886 30.59C75.7013 29.9153 76.6673 29.578 77.7866 29.578ZM77.7866 30.268C76.6213 30.268 75.6936 30.958 75.0036 32.338C74.329 33.7027 73.9916 35.5733 73.9916 37.95C73.9916 40.3267 74.329 42.205 75.0036 43.585C75.6936 44.9497 76.6213 45.632 77.7866 45.632C78.9673 45.632 79.895 44.9497 80.5696 43.585C81.2443 42.205 81.5816 40.3267 81.5816 37.95C81.5816 35.5733 81.2443 33.7027 80.5696 32.338C79.895 30.958 78.9673 30.268 77.7866 30.268ZM85.0158 33.672L84.6018 31.073C84.8931 30.7817 85.2688 30.5287 85.7288 30.314C86.1888 30.084 86.6795 29.9077 87.2008 29.785C87.7221 29.647 88.2281 29.578 88.7188 29.578C89.7308 29.578 90.6125 29.762 91.3638 30.13C92.1305 30.498 92.7208 31.0193 93.1348 31.694C93.5488 32.3687 93.7558 33.1813 93.7558 34.132C93.7558 34.914 93.5795 35.7113 93.2268 36.524C92.8895 37.3213 92.4448 38.111 91.8928 38.893C91.3408 39.6597 90.7428 40.4033 90.0988 41.124C89.4548 41.8293 88.8261 42.4887 88.2128 43.102C87.5995 43.7 87.0628 44.2367 86.6028 44.712H91.8928C92.3528 44.712 92.7285 44.6507 93.0198 44.528C93.3265 44.4053 93.5948 44.1983 93.8248 43.907C94.0701 43.6157 94.3231 43.2323 94.5838 42.757H94.8138L93.7328 46H84.2798V45.77C84.8165 45.2793 85.4221 44.6813 86.0968 43.976C86.7868 43.2553 87.4768 42.481 88.1668 41.653C88.8568 40.825 89.4931 39.974 90.0758 39.1C90.6585 38.226 91.1261 37.375 91.4788 36.547C91.8468 35.7037 92.0308 34.9293 92.0308 34.224C92.0308 32.982 91.7318 32.0083 91.1338 31.303C90.5511 30.5823 89.7461 30.2373 88.7188 30.268C87.6455 30.2833 86.7945 30.5823 86.1658 31.165C85.5371 31.7477 85.2305 32.5833 85.2458 33.672H85.0158ZM99.4537 29.624C100.389 29.578 101.194 29.7083 101.869 30.015C102.543 30.3063 103.065 30.7203 103.433 31.257C103.801 31.7783 103.985 32.3763 103.985 33.051C103.985 33.603 103.862 34.132 103.617 34.638C103.371 35.144 103.049 35.581 102.651 35.949C102.267 36.317 101.846 36.5853 101.386 36.754C100.941 36.9073 100.512 36.9303 100.098 36.823C100.604 36.823 101.11 36.915 101.616 37.099C102.122 37.2677 102.589 37.5283 103.019 37.881C103.448 38.2337 103.785 38.6783 104.031 39.215C104.291 39.7363 104.422 40.342 104.422 41.032C104.422 41.7527 104.268 42.435 103.962 43.079C103.67 43.723 103.256 44.3057 102.72 44.827C102.198 45.333 101.577 45.7547 100.857 46.092C100.136 46.4447 99.3464 46.6747 98.4877 46.782C97.6444 46.9047 96.7627 46.8893 95.8427 46.736L95.8887 46.506C96.8087 46.5213 97.675 46.3987 98.4877 46.138C99.3004 45.8773 100.021 45.5017 100.65 45.011C101.294 44.5203 101.792 43.93 102.145 43.24C102.513 42.55 102.697 41.791 102.697 40.963C102.697 40.089 102.49 39.376 102.076 38.824C101.677 38.2567 101.125 37.8427 100.42 37.582C99.7144 37.306 98.9017 37.168 97.9817 37.168L98.0277 36.938C98.7177 36.938 99.3924 36.7847 100.052 36.478C100.711 36.1713 101.248 35.7267 101.662 35.144C102.091 34.5613 102.283 33.8483 102.237 33.005C102.221 32.545 102.106 32.1157 101.892 31.717C101.692 31.303 101.386 30.9657 100.972 30.705C100.573 30.4443 100.052 30.314 99.4077 30.314C98.457 30.314 97.721 30.6053 97.1997 31.188C96.6784 31.7553 96.4407 32.4913 96.4867 33.396H96.2567L95.8657 31.257C96.2337 30.843 96.6937 30.4827 97.2457 30.176C97.813 29.854 98.549 29.67 99.4537 29.624Z" fill="#DCEA88"/>
</svg>
