<svg width="32" height="32" viewBox="0 0 32 32" fill="none" xmlns="http://www.w3.org/2000/svg">
<mask id="mask0_392_17" style="mask-type:alpha" maskUnits="userSpaceOnUse" x="0" y="0" width="32" height="32">
<rect width="32" height="32" fill="#515345"/>
</mask>
<g mask="url(#mask0_392_17)">
<rect width="32" height="32" fill="#DCEA88"/>
<rect x="2.5" y="2.5" width="27" height="27" fill="#DCEA88" stroke="#192928"/>
<path d="M8.98753 26.28C7.4942 26.28 6.35553 25.86 5.57153 25.02C4.78753 24.1613 4.39553 22.9387 4.39553 21.352V6.4H7.47553V21.576C7.47553 22.248 7.6062 22.7333 7.86753 23.032C8.14753 23.3307 8.53953 23.48 9.04353 23.48C9.54753 23.48 9.9302 23.3307 10.1915 23.032C10.4715 22.7333 10.6115 22.248 10.6115 21.576V6.4H13.5795V21.352C13.5795 22.9387 13.1875 24.1613 12.4035 25.02C11.6195 25.86 10.4809 26.28 8.98753 26.28ZM14.3172 23.256L20.0292 9.2H14.5972V6.4H23.3332V9.144L17.6212 23.2H23.3332V26H14.3172V23.256ZM24.5111 23.032H27.4791V26H24.5111V23.032Z" fill="#192928"/>
</g>
</svg>